<svg xmlns="http://www.w3.org/2000/svg" width="20" height="20" viewBox="0 0 20 20"><defs><style>.a{fill:#484848;}</style></defs><path class="a" d="M322.879,2582.361c2.67,0,2.987.01,4.041.058a5.532,5.532,0,0,1,1.857.345,3.312,3.312,0,0,1,1.9,1.9,5.571,5.571,0,0,1,.345,1.857c.048,1.056.058,1.37.058,4.041s-.011,2.987-.058,4.041a5.556,5.556,0,0,1-.345,1.857,3.308,3.308,0,0,1-1.9,1.9,5.532,5.532,0,0,1-1.857.345c-1.054.048-1.371.059-4.041.059s-2.986-.01-4.041-.059a5.532,5.532,0,0,1-1.857-.345,3.308,3.308,0,0,1-1.9-1.9,5.533,5.533,0,0,1-.344-1.857c-.049-1.054-.058-1.37-.058-4.041s.009-2.985.058-4.041a5.547,5.547,0,0,1,.344-1.857,3.312,3.312,0,0,1,1.9-1.9,5.532,5.532,0,0,1,1.857-.345c1.055-.047,1.371-.058,4.041-.058m0-1.8c-2.716,0-3.056.011-4.123.061a7.317,7.317,0,0,0-2.427.464,5.105,5.105,0,0,0-2.925,2.925,7.335,7.335,0,0,0-.464,2.427c-.049,1.067-.061,1.407-.061,4.123s.012,3.057.061,4.123a7.354,7.354,0,0,0,.464,2.428,5.112,5.112,0,0,0,2.925,2.924,7.3,7.3,0,0,0,2.427.465c1.067.049,1.407.06,4.123.06s3.056-.01,4.123-.06a7.3,7.3,0,0,0,2.427-.465,5.112,5.112,0,0,0,2.925-2.924,7.347,7.347,0,0,0,.465-2.428c.048-1.066.06-1.408.06-4.123s-.012-3.056-.06-4.123a7.328,7.328,0,0,0-.465-2.427,5.105,5.105,0,0,0-2.925-2.925,7.317,7.317,0,0,0-2.427-.464c-1.067-.05-1.407-.061-4.123-.061" transform="translate(-312.879 -2580.559)"/><path class="a" d="M322.3,2584.721a5.259,5.259,0,1,0,5.258,5.259,5.258,5.258,0,0,0-5.258-5.259m0,8.673a3.414,3.414,0,1,1,3.413-3.414,3.414,3.414,0,0,1-3.413,3.414" transform="translate(-312.301 -2579.98)"/><path class="a" d="M327.316,2584.69a1.17,1.17,0,1,1-1.17-1.169,1.17,1.17,0,0,1,1.17,1.169" transform="translate(-310.79 -2580.047)"/></svg>