<svg xmlns="http://www.w3.org/2000/svg" width="20" height="20" viewBox="0 0 20 20"><defs><style>.a{fill:#484848;}</style></defs><path class="a" d="M393.634,2579.991a10,10,0,1,0,10,10A10,10,0,0,0,393.634,2579.991Zm4.6,14.45a.6.6,0,0,1-.85.2c-2.35-1.45-5.3-1.75-8.8-.95a.618.618,0,1,1-.3-1.2c3.8-.85,7.1-.5,9.7,1.1A.6.6,0,0,1,398.234,2594.441Zm1.2-2.751a.753.753,0,0,1-1.05.251,12.96,12.96,0,0,0-9.95-1.151.759.759,0,0,1-.45-1.45,14.63,14.63,0,0,1,11.25,1.35A.706.706,0,0,1,399.434,2591.69Zm.1-2.8c-3.2-1.9-8.549-2.1-11.6-1.15a.917.917,0,1,1-.55-1.75c3.55-1.05,9.4-.849,13.1,1.35a.967.967,0,0,1,.35,1.3A1.047,1.047,0,0,1,399.534,2588.891Z" transform="translate(-383.634 -2579.991)"/></svg>