<svg xmlns="http://www.w3.org/2000/svg" width="22.801" height="18.53" viewBox="0 0 22.801 18.53"><defs><style>.a{fill:#484848;}</style></defs><path class="a" d="M453.548,2597.835a13.3,13.3,0,0,0,20.467-11.813,9.518,9.518,0,0,0,2.334-2.422,9.371,9.371,0,0,1-2.687.736,4.686,4.686,0,0,0,2.057-2.588,9.367,9.367,0,0,1-2.97,1.135,4.681,4.681,0,0,0-7.972,4.267,13.272,13.272,0,0,1-9.641-4.889,4.684,4.684,0,0,0,1.448,6.246,4.644,4.644,0,0,1-2.12-.586,4.683,4.683,0,0,0,3.752,4.647,4.682,4.682,0,0,1-2.112.08,4.68,4.68,0,0,0,4.369,3.248A9.4,9.4,0,0,1,453.548,2597.835Z" transform="translate(-453.548 -2581.407)"/></svg>